<?xml version="1.0" encoding="UTF-8" standalone="no"?><!DOCTYPE svg PUBLIC "-//W3C//DTD SVG 1.1//EN" "http://www.w3.org/Graphics/SVG/1.1/DTD/svg11.dtd"><svg width="100%" height="100%" viewBox="0 0 48 48" version="1.1" xmlns="http://www.w3.org/2000/svg" xmlns:xlink="http://www.w3.org/1999/xlink" xml:space="preserve" xmlns:serif="http://www.serif.com/" style="fill-rule:evenodd;clip-rule:evenodd;stroke-linecap:round;stroke-linejoin:round;"><path d="M48,9.6c0,-5.298 -4.302,-9.6 -9.6,-9.6l-28.8,0c-5.298,0 -9.6,4.302 -9.6,9.6l0,28.8c0,5.298 4.302,9.6 9.6,9.6l28.8,0c5.298,0 9.6,-4.302 9.6,-9.6l0,-28.8Z" style="fill:#3f83f8;"/><g><path d="M21.718,33.347l0.159,0.46c0.55,1.596 2.288,2.444 3.884,1.895c1.596,-0.549 2.445,-2.288 1.895,-3.884l-0.159,-0.46" style="fill:none;fill-rule:nonzero;stroke:#fff;stroke-width:2px;"/><path d="M23.607,14.938l-0.399,-1.157c-0.44,-1.276 -1.831,-1.955 -3.108,-1.515c-1.276,0.44 -1.955,1.831 -1.516,3.107l0.398,1.157" style="fill:none;fill-rule:nonzero;stroke:#fff;stroke-width:2px;"/><path d="M16.365,23.688c-1.087,-3.155 0.591,-6.594 3.745,-7.68l2.286,-0.787c3.155,-1.087 6.594,0.591 7.68,3.745l1.214,3.526c0.23,0.669 0.717,1.219 1.352,1.528l1.087,0.529c0.636,0.311 1.122,0.86 1.352,1.528c0.453,1.317 -0.247,2.751 -1.563,3.205l-13.514,4.653c-1.316,0.454 -2.751,-0.246 -3.204,-1.563c-0.231,-0.669 -0.186,-1.401 0.124,-2.037l0.529,-1.087c0.311,-0.636 0.355,-1.368 0.124,-2.037l-1.212,-3.523Z" style="fill:none;fill-rule:nonzero;stroke:#fff;stroke-width:2px;"/></g><rect x="8.959" y="7.999" width="32.002" height="32.002" style="fill:none;fill-rule:nonzero;"/></svg>