<?xml version="1.0" encoding="UTF-8"?><svg version="1.1" viewBox="0 0 24 24" xmlns="http://www.w3.org/2000/svg" xmlns:xlink="http://www.w3.org/1999/xlink"><!--Generated by IJSVG (https://github.com/iconjar/IJSVG)--><g stroke-linecap="round" stroke-width="1.5" stroke="#FFFFFF" fill="none" stroke-linejoin="round"><path d="M9.569,19.01l0.119,0.345c0.412,1.197 1.716,1.833 2.913,1.421v0c1.197,-0.412 1.833,-1.716 1.421,-2.913l-0.119,-0.345"></path><path d="M10.985,5.204l-0.299,-0.868c-0.33,-0.957 -1.373,-1.466 -2.331,-1.136v0c-0.957,0.33 -1.466,1.373 -1.137,2.33l0.299,0.868"></path><path d="M5.554,11.766v0c-0.815,-2.366 0.443,-4.945 2.809,-5.76l1.714,-0.59c2.366,-0.815 4.945,0.443 5.76,2.809v0l0.91,2.644c0.173,0.502 0.538,0.914 1.014,1.146l0.815,0.397c0.477,0.233 0.842,0.645 1.014,1.146v0c0.34,0.987 -0.185,2.063 -1.172,2.403l-10.135,3.49c-0.987,0.34 -2.063,-0.185 -2.403,-1.172v0c-0.173,-0.502 -0.139,-1.051 0.093,-1.528l0.397,-0.815c0.233,-0.477 0.266,-1.026 0.093,-1.528l-0.909,-2.642Z"></path></g><path fill="none" d="M0,0h24v24h-24Z"></path></svg>